<svg width="900" height="560" viewBox="0 0 900 560" fill="none" xmlns="http://www.w3.org/2000/svg">
  <rect width="900" height="560" rx="34" fill="#F8FAFC"/>
  <rect width="900" height="560" rx="34" fill="url(#portfolioBg)"/>
  <circle cx="690" cy="260" r="146" fill="#DDD6FE"/>
  <circle cx="690" cy="260" r="108" fill="#F8FAFC"/>
  <path d="M624 280C642 235 672 212 714 218C760 225 779 262 804 289V372H624V280Z" fill="#312E81"/>
  <circle cx="727" cy="205" r="42" fill="#111827"/>
  <rect x="106" y="102" width="372" height="310" rx="30" fill="white" fill-opacity=".92"/>
  <rect x="142" y="142" width="116" height="22" rx="11" fill="#6D5DFC"/>
  <rect x="142" y="194" width="250" height="42" rx="16" fill="#0F172A"/>
  <rect x="142" y="260" width="270" height="16" rx="8" fill="#64748B"/>
  <rect x="142" y="294" width="230" height="16" rx="8" fill="#94A3B8"/>
  <rect x="142" y="348" width="128" height="44" rx="14" fill="#6D5DFC"/>
  <rect x="288" y="348" width="104" height="44" rx="14" fill="#E0F2FE"/>
  <rect x="518" y="402" width="270" height="54" rx="18" fill="white" fill-opacity=".86"/>
  <circle cx="550" cy="429" r="11" fill="#6D5DFC"/>
  <rect x="574" y="418" width="164" height="12" rx="6" fill="#64748B"/>
  <rect x="574" y="438" width="94" height="10" rx="5" fill="#94A3B8"/>
  <text x="106" y="470" fill="#6D5DFC" font-family="Arial, sans-serif" font-size="36" font-weight="800">Ganesh Sharma</text>
  <text x="106" y="504" fill="#475569" font-family="Arial, sans-serif" font-size="18" font-weight="700">React portfolio for projects, skills and achievements</text>
  <defs>
    <linearGradient id="portfolioBg" x1="0" y1="0" x2="900" y2="560" gradientUnits="userSpaceOnUse">
      <stop stop-color="#FFFFFF"/>
      <stop offset=".5" stop-color="#F5F3FF"/>
      <stop offset="1" stop-color="#DBEAFE"/>
    </linearGradient>
  </defs>
</svg>
