<svg width="900" height="560" viewBox="0 0 900 560" fill="none" xmlns="http://www.w3.org/2000/svg">
  <rect width="900" height="560" rx="34" fill="#111827"/>
  <rect width="900" height="560" rx="34" fill="url(#storeBg)"/>
  <rect x="66" y="72" width="768" height="416" rx="28" fill="white" fill-opacity=".92"/>
  <rect x="104" y="112" width="690" height="56" rx="18" fill="#111827"/>
  <rect x="132" y="132" width="118" height="16" rx="8" fill="white"/>
  <rect x="618" y="128" width="42" height="24" rx="12" fill="#6D5DFC"/>
  <rect x="676" y="128" width="86" height="24" rx="12" fill="#E0F2FE"/>
  <rect x="104" y="216" width="196" height="184" rx="24" fill="#F8FAFC"/>
  <rect x="352" y="216" width="196" height="184" rx="24" fill="#F8FAFC"/>
  <rect x="600" y="216" width="196" height="184" rx="24" fill="#F8FAFC"/>
  <rect x="132" y="250" width="140" height="72" rx="18" fill="url(#itemOne)"/>
  <rect x="380" y="250" width="140" height="72" rx="18" fill="url(#itemTwo)"/>
  <rect x="628" y="250" width="140" height="72" rx="18" fill="url(#itemThree)"/>
  <rect x="132" y="350" width="96" height="13" rx="7" fill="#111827"/>
  <rect x="380" y="350" width="96" height="13" rx="7" fill="#111827"/>
  <rect x="628" y="350" width="96" height="13" rx="7" fill="#111827"/>
  <rect x="132" y="376" width="72" height="12" rx="6" fill="#6D5DFC"/>
  <rect x="380" y="376" width="72" height="12" rx="6" fill="#6D5DFC"/>
  <rect x="628" y="376" width="72" height="12" rx="6" fill="#6D5DFC"/>
  <text x="104" y="452" fill="#0F172A" font-family="Arial, sans-serif" font-size="34" font-weight="800">Full Fledge E-Commerce</text>
  <text x="104" y="484" fill="#475569" font-family="Arial, sans-serif" font-size="18" font-weight="700">Authentication, orders, cart and admin controls</text>
  <defs>
    <linearGradient id="storeBg" x1="0" y1="0" x2="900" y2="560" gradientUnits="userSpaceOnUse">
      <stop stop-color="#020617"/>
      <stop offset=".48" stop-color="#312E81"/>
      <stop offset="1" stop-color="#6D5DFC"/>
    </linearGradient>
    <linearGradient id="itemOne" x1="132" y1="250" x2="272" y2="322" gradientUnits="userSpaceOnUse">
      <stop stop-color="#FDE68A"/>
      <stop offset="1" stop-color="#F97316"/>
    </linearGradient>
    <linearGradient id="itemTwo" x1="380" y1="250" x2="520" y2="322" gradientUnits="userSpaceOnUse">
      <stop stop-color="#A7F3D0"/>
      <stop offset="1" stop-color="#14B8A6"/>
    </linearGradient>
    <linearGradient id="itemThree" x1="628" y1="250" x2="768" y2="322" gradientUnits="userSpaceOnUse">
      <stop stop-color="#BFDBFE"/>
      <stop offset="1" stop-color="#6366F1"/>
    </linearGradient>
  </defs>
</svg>
