<svg width="900" height="560" viewBox="0 0 900 560" fill="none" xmlns="http://www.w3.org/2000/svg">
  <rect width="900" height="560" rx="34" fill="#EFF6FF"/>
  <rect width="900" height="560" rx="34" fill="url(#sfBg)"/>
  <rect x="72" y="74" width="756" height="412" rx="30" fill="white" fill-opacity=".92"/>
  <rect x="110" y="112" width="680" height="52" rx="18" fill="#F8FAFC"/>
  <rect x="138" y="130" width="142" height="16" rx="8" fill="#0EA5E9"/>
  <rect x="618" y="126" width="138" height="24" rx="12" fill="#DDD6FE"/>
  <circle cx="226" cy="292" r="94" fill="#E0F2FE"/>
  <path d="M182 294C182 264 207 240 238 240C259 240 277 251 287 268C311 269 330 288 330 312C330 337 309 357 283 357H196C170 357 148 337 148 312C148 302 151 293 156 286C164 281 173 280 182 294Z" fill="#0EA5E9"/>
  <rect x="386" y="222" width="324" height="34" rx="17" fill="#111827"/>
  <rect x="386" y="282" width="270" height="16" rx="8" fill="#64748B"/>
  <rect x="386" y="318" width="330" height="16" rx="8" fill="#94A3B8"/>
  <rect x="386" y="366" width="94" height="34" rx="12" fill="#6D5DFC"/>
  <rect x="498" y="366" width="84" height="34" rx="12" fill="#E0F2FE"/>
  <rect x="600" y="366" width="84" height="34" rx="12" fill="#DCFCE7"/>
  <text x="110" y="454" fill="#0F172A" font-family="Arial, sans-serif" font-size="34" font-weight="800">Salesforce Training Work</text>
  <text x="110" y="487" fill="#475569" font-family="Arial, sans-serif" font-size="18" font-weight="700">Apex, Flows, Lightning, Admin and Developer Tools</text>
  <defs>
    <linearGradient id="sfBg" x1="0" y1="0" x2="900" y2="560" gradientUnits="userSpaceOnUse">
      <stop stop-color="#DBEAFE"/>
      <stop offset=".55" stop-color="#F5F3FF"/>
      <stop offset="1" stop-color="#FFFFFF"/>
    </linearGradient>
  </defs>
</svg>
